<svg xmlns="http://www.w3.org/2000/svg" width="1920" height="756" viewBox="0 0 1920 756"><rect width="100%" height="100%" fill="#DDDDDD"/><path fill="#999999" d="M466.855 438.525h29.25v20.81h-90v-20.81h32.97v-94.84q0-5.63.33-11.59l-23.4 19.58q-2.02 1.57-3.99 1.97-1.97.39-3.71.05-1.75-.34-3.1-1.18t-2.02-1.85l-8.78-12.04 49.62-42.19h22.83zm80.44-93.04q0 13.61 7.03 20.76 7.03 7.14 19.97 7.14 6.75 0 12.04-2.14t8.89-5.85 5.45-8.77q1.86-5.07 1.86-10.92 0-6.63-2.03-11.86-2.02-5.23-5.73-8.84-3.72-3.6-8.84-5.51-5.11-1.91-11.19-1.91-6.3 0-11.36 2.08t-8.66 5.79q-3.6 3.72-5.52 8.84-1.91 5.12-1.91 11.19m-13.61 113.85 50.51-63.11q1.91-2.37 3.6-4.62t3.26-4.5q-5.62 3.6-12.37 5.46t-14.18 1.86q-8.43 0-16.53-2.93-8.1-2.92-14.4-8.83t-10.19-14.62q-3.88-8.72-3.88-20.42 0-10.92 4.05-20.48t11.37-16.76q7.31-7.2 17.55-11.36 10.23-4.16 22.61-4.16 12.49 0 22.44 3.93 9.96 3.94 16.99 11.03 7.03 7.08 10.8 16.98t3.77 21.72q0 7.53-1.3 14.28-1.29 6.75-3.65 13-2.36 6.24-5.74 12.2-3.37 5.97-7.54 11.82l-37.23 53.1q-1.92 2.7-5.74 4.55-3.83 1.86-8.66 1.86zm175.61-25.88h41.74q4.5 0 7.14 2.54 2.65 2.53 2.65 6.69v16.65h-111.6v-9.22q0-2.82 1.18-5.91 1.18-3.1 3.77-5.57l49.38-49.5q6.19-6.3 11.08-12.04 4.9-5.74 8.16-11.36 3.26-5.63 5.01-11.42 1.74-5.79 1.74-12.21 0-5.85-1.69-10.29-1.68-4.44-4.78-7.48-3.09-3.04-7.42-4.56t-9.73-1.52q-4.95 0-9.17 1.41t-7.48 3.94q-3.27 2.53-5.52 5.9-2.25 3.38-3.37 7.43-1.91 5.17-4.95 6.86t-8.78.79l-14.62-2.59q1.69-11.7 6.52-20.53 4.84-8.83 12.1-14.74 7.25-5.9 16.65-8.88 9.39-2.98 20.19-2.98 11.25 0 20.59 3.31 9.34 3.32 15.97 9.4 6.64 6.07 10.35 14.62 3.72 8.55 3.72 19.01 0 9-2.65 16.65-2.64 7.65-7.09 14.63-4.44 6.97-10.4 13.5-5.96 6.52-12.49 13.27l-36.67 37.47q5.28-1.58 10.51-2.42 5.24-.85 9.96-.85m186.75-55.46q0 21.26-4.56 36.96-4.55 15.69-12.6 25.93-8.04 10.24-19.01 15.24-10.97 5.01-23.68 5.01t-23.57-5.01q-10.85-5-18.84-15.24t-12.49-25.93q-4.5-15.7-4.5-36.96 0-21.37 4.5-37.01t12.49-25.87q7.99-10.24 18.84-15.25 10.86-5 23.57-5t23.68 5q10.97 5.01 19.01 15.25 8.05 10.23 12.6 25.87 4.56 15.64 4.56 37.01m-28.69 0q0-17.66-2.58-29.25-2.59-11.58-6.92-18.45-4.33-6.86-9.96-9.62-5.62-2.75-11.7-2.75-5.96 0-11.53 2.75-5.57 2.76-9.84 9.62-4.28 6.87-6.81 18.45-2.53 11.59-2.53 29.25t2.53 29.25 6.81 18.45q4.27 6.86 9.84 9.62t11.53 2.76q6.08 0 11.7-2.76 5.63-2.76 9.96-9.62t6.92-18.45q2.58-11.59 2.58-29.25m207.34 44.1-14.74 14.51-38.13-38.13-38.48 38.36-14.74-14.51 38.48-38.59-36.68-36.68 14.63-14.62 36.67 36.67 36.45-36.44 14.85 14.62-36.56 36.56zm77.29-125.44h112.39v12.04q0 5.4-1.13 8.72-1.12 3.32-2.25 5.57l-61.65 126.9q-1.91 3.94-5.4 6.69-3.49 2.76-9.34 2.76h-20.13l62.88-124.31q2.14-3.83 4.22-7.03 2.08-3.21 4.67-6.13h-77.85q-2.59 0-4.5-1.92-1.91-1.91-1.91-4.5zm171.45 25.21-5.74 33.86q5.4-1.13 10.35-1.63 4.95-.51 9.56-.51 12.83 0 22.62 3.83 9.78 3.82 16.42 10.57t10.01 15.81q3.38 9.05 3.38 19.52 0 12.93-4.56 23.62-4.55 10.69-12.65 18.28t-19.19 11.76q-11.08 4.16-24.13 4.16-7.65 0-14.51-1.57-6.86-1.58-12.88-4.22-6.02-2.65-11.14-6.08t-9.17-7.25l8.55-11.82q2.7-3.82 7.09-3.82 2.81 0 5.74 1.8 2.92 1.8 6.69 3.93 3.77 2.14 8.89 3.94t12.32 1.8q7.65 0 13.5-2.47 5.85-2.48 9.73-6.92 3.88-4.45 5.85-10.58t1.97-13.33q0-13.27-7.71-20.75-7.7-7.49-22.78-7.49-11.59 0-23.74 4.28l-17.32-4.95 13.5-78.98h80.32v11.82q0 5.96-3.71 9.67-3.71 3.72-12.6 3.72zm186.07-25.21-48.26 59.07-5.62 6.97q4.72-2.36 10.18-3.65 5.45-1.3 11.75-1.3 9.23 0 17.95 3.04t15.35 9.17q6.64 6.13 10.69 15.24t4.05 21.26q0 11.37-4.16 21.32-4.16 9.96-11.7 17.38-7.54 7.43-18.17 11.7-10.63 4.28-23.46 4.28-13.05 0-23.4-4.16-10.35-4.17-17.66-11.65t-11.19-18q-3.88-10.51-3.88-23.34 0-11.48 4.66-23.57 4.67-12.09 14.46-25.14l38.81-52.09q2.03-2.7 5.91-4.61 3.88-1.92 8.94-1.92zm-41.96 141.75q6.64 0 12.21-2.25t9.56-6.3q3.99-4.04 6.24-9.5t2.25-11.87q0-6.98-2.13-12.54-2.14-5.57-6.08-9.45-3.94-3.89-9.45-5.91-5.51-2.03-12.15-2.03t-12.04 2.25-9.22 6.25q-3.83 3.99-5.96 9.45-2.14 5.45-2.14 11.75 0 6.75 1.85 12.32 1.86 5.57 5.52 9.51 3.65 3.94 9.05 6.13t12.49 2.19"/></svg>