<svg xmlns="http://www.w3.org/2000/svg" width="100" height="50" viewBox="0 0 100 50"><rect width="100%" height="100%" fill="#DDDDDD"/><path fill="#999999" d="M24.145 29.305h2.08v1.48h-6.4v-1.48h2.35v-6.74q0-.4.02-.83l-1.66 1.39q-.15.12-.29.14-.14.03-.26.01-.13-.03-.22-.09-.1-.06-.15-.13l-.62-.85 3.53-3h1.62zm11.96-4.3q0 1.51-.32 2.62-.33 1.12-.9 1.85t-1.35 1.08q-.78.36-1.68.36-.91 0-1.68-.36-.77-.35-1.34-1.08t-.89-1.85q-.32-1.11-.32-2.62 0-1.52.32-2.64.32-1.11.89-1.84.57-.72 1.34-1.08t1.68-.36q.9 0 1.68.36t1.35 1.08q.57.73.9 1.84.32 1.12.32 2.64m-2.04 0q0-1.26-.18-2.08-.19-.83-.49-1.32-.31-.48-.71-.68t-.83-.2-.82.2q-.4.2-.7.68-.31.49-.49 1.32-.18.82-.18 2.08 0 1.25.18 2.08.18.82.49 1.31.3.49.7.68.39.2.82.2t.83-.2q.4-.19.71-.68.3-.49.49-1.31.18-.83.18-2.08m11.32 0q0 1.51-.32 2.62-.33 1.12-.9 1.85t-1.35 1.08q-.78.36-1.68.36-.91 0-1.68-.36-.77-.35-1.34-1.08t-.89-1.85q-.32-1.11-.32-2.62 0-1.52.32-2.64.32-1.11.89-1.84.57-.72 1.34-1.08t1.68-.36q.9 0 1.68.36t1.35 1.08q.57.73.9 1.84.32 1.12.32 2.64m-2.04 0q0-1.26-.18-2.08-.19-.83-.49-1.32-.31-.48-.71-.68t-.83-.2-.82.2q-.4.2-.7.68-.31.49-.49 1.32-.18.82-.18 2.08 0 1.25.18 2.08.18.82.49 1.31.3.49.7.68.39.2.82.2t.83-.2q.4-.19.71-.68.3-.49.49-1.31.18-.83.18-2.08m14.75 3.13-1.05 1.03-2.71-2.71-2.74 2.73-1.05-1.03 2.74-2.75-2.61-2.6 1.04-1.04 2.61 2.6 2.59-2.59 1.06 1.04-2.6 2.6zm8.4-7.13-.4 2.41q.38-.08.73-.11.35-.04.68-.04.91 0 1.61.27t1.17.75.71 1.13q.24.64.24 1.39 0 .92-.32 1.68-.33.76-.9 1.3-.58.54-1.37.83-.79.3-1.71.3-.55 0-1.04-.11-.48-.12-.91-.3-.43-.19-.79-.44-.37-.24-.66-.51l.61-.84q.19-.27.51-.27.2 0 .4.12.21.13.48.28.27.16.63.28.37.13.88.13.54 0 .96-.17.41-.18.69-.5.28-.31.42-.75.14-.43.14-.95 0-.94-.55-1.47t-1.62-.53q-.83 0-1.69.3l-1.23-.35.96-5.62h5.71v.84q0 .43-.26.69-.27.26-.9.26zm14.51 4q0 1.51-.33 2.62-.32 1.12-.89 1.85t-1.35 1.08q-.78.36-1.69.36-.9 0-1.67-.36-.78-.35-1.34-1.08-.57-.73-.89-1.85-.32-1.11-.32-2.62 0-1.52.32-2.64.32-1.11.89-1.84.56-.72 1.34-1.08.77-.36 1.67-.36.91 0 1.69.36t1.35 1.08q.57.73.89 1.84.33 1.12.33 2.64m-2.04 0q0-1.26-.19-2.08-.18-.83-.49-1.32-.31-.48-.71-.68t-.83-.2q-.42 0-.82.2-.39.2-.7.68-.3.49-.48 1.32-.18.82-.18 2.08 0 1.25.18 2.08.18.82.48 1.31.31.49.7.68.4.2.82.2.43 0 .83-.2.4-.19.71-.68t.49-1.31q.19-.83.19-2.08"/></svg>